<svg width="332" height="110" viewBox="0 0 332 110" fill="none" xmlns="http://www.w3.org/2000/svg">
<g filter="url(#filter0_dd_23_762)">
<rect x="2" y="2" width="328" height="104" rx="8" fill="white"/>
<path d="M27.5625 21.625V33H26.0547V28.2891C25.5078 28.4453 25.0104 28.5547 24.5625 28.6172C24.1146 28.6745 23.6042 28.7031 23.0312 28.7031C21.7344 28.7031 20.7708 28.4219 20.1406 27.8594C19.5104 27.2969 19.1875 26.4349 19.1719 25.2734V21.625H20.6797V25.2344C20.6849 26.026 20.8646 26.5964 21.2188 26.9453C21.5781 27.2943 22.1823 27.4688 23.0312 27.4688C24.0208 27.4688 25.0286 27.3281 26.0547 27.0469V21.625H27.5625ZM36.3281 25.7188H33.4922V33H32.0469V25.7188H29.2656V24.5469H36.3281V25.7188ZM37.0234 28.6953C37.0234 27.8672 37.1849 27.1224 37.5078 26.4609C37.8359 25.7995 38.2891 25.2891 38.8672 24.9297C39.4505 24.5703 40.1146 24.3906 40.8594 24.3906C42.0104 24.3906 42.9401 24.7891 43.6484 25.5859C44.362 26.3828 44.7188 27.4427 44.7188 28.7656V28.8672C44.7188 29.6901 44.5599 30.4297 44.2422 31.0859C43.9297 31.737 43.4792 32.2448 42.8906 32.6094C42.3073 32.974 41.6354 33.1562 40.875 33.1562C39.7292 33.1562 38.7995 32.7578 38.0859 31.9609C37.3776 31.1641 37.0234 30.1094 37.0234 28.7969V28.6953ZM38.4766 28.8672C38.4766 29.8047 38.6927 30.5573 39.125 31.125C39.5625 31.6927 40.1458 31.9766 40.875 31.9766C41.6094 31.9766 42.1927 31.6901 42.625 31.1172C43.0573 30.5391 43.2734 29.7318 43.2734 28.6953C43.2734 27.7682 43.0521 27.0182 42.6094 26.4453C42.1719 25.8672 41.5885 25.5781 40.8594 25.5781C40.1458 25.5781 39.5703 25.862 39.1328 26.4297C38.6953 26.9974 38.4766 27.8099 38.4766 28.8672ZM57.4062 33H55.9609V29.3906H52.0781V33H50.625V24.5469H52.0781V28.2109H55.9609V24.5469H57.4062V33ZM64.9531 33C64.8698 32.8333 64.8021 32.5365 64.75 32.1094C64.0781 32.8073 63.276 33.1562 62.3438 33.1562C61.5104 33.1562 60.8255 32.9219 60.2891 32.4531C59.7578 31.9792 59.4922 31.3802 59.4922 30.6562C59.4922 29.776 59.8255 29.0938 60.4922 28.6094C61.1641 28.1198 62.1068 27.875 63.3203 27.875H64.7266V27.2109C64.7266 26.7057 64.5755 26.3047 64.2734 26.0078C63.9714 25.7057 63.526 25.5547 62.9375 25.5547C62.4219 25.5547 61.9896 25.6849 61.6406 25.9453C61.2917 26.2057 61.1172 26.5208 61.1172 26.8906H59.6641C59.6641 26.4688 59.8125 26.0625 60.1094 25.6719C60.4115 25.276 60.8177 24.9635 61.3281 24.7344C61.8438 24.5052 62.4089 24.3906 63.0234 24.3906C63.9974 24.3906 64.7604 24.6354 65.3125 25.125C65.8646 25.6094 66.151 26.2786 66.1719 27.1328V31.0234C66.1719 31.7995 66.2708 32.4167 66.4688 32.875V33H64.9531ZM62.5547 31.8984C63.0078 31.8984 63.4375 31.7812 63.8438 31.5469C64.25 31.3125 64.5443 31.0078 64.7266 30.6328V28.8984H63.5938C61.8229 28.8984 60.9375 29.4167 60.9375 30.4531C60.9375 30.9062 61.0885 31.2604 61.3906 31.5156C61.6927 31.7708 62.0807 31.8984 62.5547 31.8984ZM68.3672 31.8203L68.8672 31.2031C69.4297 30.474 69.75 29.3802 69.8281 27.9219L69.9609 24.5469H75.4062V31.8203H76.4922V35.4844H75.0469V33H69.1484V35.4844H67.7031L67.7109 31.8203H68.3672ZM70.0781 31.8203H73.9609V25.8828H71.3594L71.2734 27.8984C71.1849 29.5807 70.7865 30.888 70.0781 31.8203ZM77.7109 28.6953C77.7109 27.8672 77.8724 27.1224 78.1953 26.4609C78.5234 25.7995 78.9766 25.2891 79.5547 24.9297C80.138 24.5703 80.8021 24.3906 81.5469 24.3906C82.6979 24.3906 83.6276 24.7891 84.3359 25.5859C85.0495 26.3828 85.4062 27.4427 85.4062 28.7656V28.8672C85.4062 29.6901 85.2474 30.4297 84.9297 31.0859C84.6172 31.737 84.1667 32.2448 83.5781 32.6094C82.9948 32.974 82.3229 33.1562 81.5625 33.1562C80.4167 33.1562 79.487 32.7578 78.7734 31.9609C78.0651 31.1641 77.7109 30.1094 77.7109 28.7969V28.6953ZM79.1641 28.8672C79.1641 29.8047 79.3802 30.5573 79.8125 31.125C80.25 31.6927 80.8333 31.9766 81.5625 31.9766C82.2969 31.9766 82.8802 31.6901 83.3125 31.1172C83.7448 30.5391 83.9609 29.7318 83.9609 28.6953C83.9609 27.7682 83.7396 27.0182 83.2969 26.4453C82.8594 25.8672 82.276 25.5781 81.5469 25.5781C80.8333 25.5781 80.2578 25.862 79.8203 26.4297C79.3828 26.9974 79.1641 27.8099 79.1641 28.8672ZM94.5781 31.9766C95.0938 31.9766 95.5443 31.8203 95.9297 31.5078C96.3151 31.1953 96.5286 30.8047 96.5703 30.3359H97.9375C97.9115 30.8203 97.7448 31.2812 97.4375 31.7188C97.1302 32.1562 96.7188 32.5052 96.2031 32.7656C95.6927 33.026 95.151 33.1562 94.5781 33.1562C93.4271 33.1562 92.5104 32.7734 91.8281 32.0078C91.151 31.237 90.8125 30.1849 90.8125 28.8516V28.6094C90.8125 27.7865 90.9635 27.0547 91.2656 26.4141C91.5677 25.7734 92 25.276 92.5625 24.9219C93.1302 24.5677 93.7995 24.3906 94.5703 24.3906C95.5182 24.3906 96.3047 24.6745 96.9297 25.2422C97.5599 25.8099 97.8958 26.5469 97.9375 27.4531H96.5703C96.5286 26.9062 96.3203 26.4583 95.9453 26.1094C95.5755 25.7552 95.1172 25.5781 94.5703 25.5781C93.8359 25.5781 93.2656 25.8438 92.8594 26.375C92.4583 26.901 92.2578 27.6641 92.2578 28.6641V28.9375C92.2578 29.9115 92.4583 30.6615 92.8594 31.1875C93.2604 31.7135 93.8333 31.9766 94.5781 31.9766ZM99.4922 31.8203L99.9922 31.2031C100.555 30.474 100.875 29.3802 100.953 27.9219L101.086 24.5469H106.531V31.8203H107.617V35.4844H106.172V33H100.273V35.4844H98.8281L98.8359 31.8203H99.4922ZM101.203 31.8203H105.086V25.8828H102.484L102.398 27.8984C102.31 29.5807 101.911 30.888 101.203 31.8203ZM112.727 33.1562C111.581 33.1562 110.648 32.7812 109.93 32.0312C109.211 31.276 108.852 30.2682 108.852 29.0078V28.7422C108.852 27.9036 109.01 27.1562 109.328 26.5C109.651 25.8385 110.099 25.3229 110.672 24.9531C111.25 24.5781 111.875 24.3906 112.547 24.3906C113.646 24.3906 114.5 24.7526 115.109 25.4766C115.719 26.2005 116.023 27.237 116.023 28.5859V29.1875H110.297C110.318 30.0208 110.56 30.6953 111.023 31.2109C111.492 31.7214 112.086 31.9766 112.805 31.9766C113.315 31.9766 113.747 31.8724 114.102 31.6641C114.456 31.4557 114.766 31.1797 115.031 30.8359L115.914 31.5234C115.206 32.612 114.143 33.1562 112.727 33.1562ZM112.547 25.5781C111.964 25.5781 111.474 25.7917 111.078 26.2188C110.682 26.6406 110.438 27.2344 110.344 28H114.578V27.8906C114.536 27.1562 114.339 26.5885 113.984 26.1875C113.63 25.7812 113.151 25.5781 112.547 25.5781ZM124.633 24.5469V33H123.18V25.7422H120.305L120.133 28.9062C120.039 30.3594 119.794 31.3984 119.398 32.0234C119.008 32.6484 118.385 32.974 117.531 33H116.953V31.7266L117.367 31.6953C117.836 31.6432 118.172 31.3724 118.375 30.8828C118.578 30.3932 118.708 29.487 118.766 28.1641L118.922 24.5469H124.633ZM132.172 33C132.089 32.8333 132.021 32.5365 131.969 32.1094C131.297 32.8073 130.495 33.1562 129.562 33.1562C128.729 33.1562 128.044 32.9219 127.508 32.4531C126.977 31.9792 126.711 31.3802 126.711 30.6562C126.711 29.776 127.044 29.0938 127.711 28.6094C128.383 28.1198 129.326 27.875 130.539 27.875H131.945V27.2109C131.945 26.7057 131.794 26.3047 131.492 26.0078C131.19 25.7057 130.745 25.5547 130.156 25.5547C129.641 25.5547 129.208 25.6849 128.859 25.9453C128.51 26.2057 128.336 26.5208 128.336 26.8906H126.883C126.883 26.4688 127.031 26.0625 127.328 25.6719C127.63 25.276 128.036 24.9635 128.547 24.7344C129.062 24.5052 129.628 24.3906 130.242 24.3906C131.216 24.3906 131.979 24.6354 132.531 25.125C133.083 25.6094 133.37 26.2786 133.391 27.1328V31.0234C133.391 31.7995 133.49 32.4167 133.688 32.875V33H132.172ZM129.773 31.8984C130.227 31.8984 130.656 31.7812 131.062 31.5469C131.469 31.3125 131.763 31.0078 131.945 30.6328V28.8984H130.812C129.042 28.8984 128.156 29.4167 128.156 30.4531C128.156 30.9062 128.307 31.2604 128.609 31.5156C128.911 31.7708 129.299 31.8984 129.773 31.8984ZM141.812 25.7188H138.977V33H137.531V25.7188H134.75V24.5469H141.812V25.7188ZM144.797 27.4609H146.992C147.951 27.4714 148.708 27.7214 149.266 28.2109C149.823 28.7005 150.102 29.3646 150.102 30.2031C150.102 31.0469 149.815 31.724 149.242 32.2344C148.669 32.7448 147.898 33 146.93 33H143.352V24.5469H144.797V27.4609ZM144.797 28.6406V31.8203H146.945C147.487 31.8203 147.906 31.6823 148.203 31.4062C148.5 31.125 148.648 30.7422 148.648 30.2578C148.648 29.7891 148.503 29.4062 148.211 29.1094C147.924 28.8073 147.521 28.651 147 28.6406H144.797ZM151.969 32.2422C151.969 31.9922 152.042 31.7839 152.188 31.6172C152.339 31.4505 152.562 31.3672 152.859 31.3672C153.156 31.3672 153.38 31.4505 153.531 31.6172C153.688 31.7839 153.766 31.9922 153.766 32.2422C153.766 32.4818 153.688 32.6823 153.531 32.8438C153.38 33.0052 153.156 33.0859 152.859 33.0859C152.562 33.0859 152.339 33.0052 152.188 32.8438C152.042 32.6823 151.969 32.4818 151.969 32.2422ZM155.383 32.2422C155.383 31.9922 155.456 31.7839 155.602 31.6172C155.753 31.4505 155.977 31.3672 156.273 31.3672C156.57 31.3672 156.794 31.4505 156.945 31.6172C157.102 31.7839 157.18 31.9922 157.18 32.2422C157.18 32.4818 157.102 32.6823 156.945 32.8438C156.794 33.0052 156.57 33.0859 156.273 33.0859C155.977 33.0859 155.753 33.0052 155.602 32.8438C155.456 32.6823 155.383 32.4818 155.383 32.2422ZM158.625 32.2422C158.625 31.9922 158.698 31.7839 158.844 31.6172C158.995 31.4505 159.219 31.3672 159.516 31.3672C159.812 31.3672 160.036 31.4505 160.188 31.6172C160.344 31.7839 160.422 31.9922 160.422 32.2422C160.422 32.4818 160.344 32.6823 160.188 32.8438C160.036 33.0052 159.812 33.0859 159.516 33.0859C159.219 33.0859 158.995 33.0052 158.844 32.8438C158.698 32.6823 158.625 32.4818 158.625 32.2422Z" fill="black" fill-opacity="0.3"/>
</g>
<defs>
<filter id="filter0_dd_23_762" x="0" y="0" width="332" height="110" filterUnits="userSpaceOnUse" color-interpolation-filters="sRGB">
<feFlood flood-opacity="0" result="BackgroundImageFix"/>
<feColorMatrix in="SourceAlpha" type="matrix" values="0 0 0 0 0 0 0 0 0 0 0 0 0 0 0 0 0 0 127 0" result="hardAlpha"/>
<feOffset dy="2"/>
<feGaussianBlur stdDeviation="1"/>
<feColorMatrix type="matrix" values="0 0 0 0 0 0 0 0 0 0 0 0 0 0 0 0 0 0 0.12 0"/>
<feBlend mode="normal" in2="BackgroundImageFix" result="effect1_dropShadow_23_762"/>
<feColorMatrix in="SourceAlpha" type="matrix" values="0 0 0 0 0 0 0 0 0 0 0 0 0 0 0 0 0 0 127 0" result="hardAlpha"/>
<feOffset/>
<feGaussianBlur stdDeviation="1"/>
<feColorMatrix type="matrix" values="0 0 0 0 0 0 0 0 0 0 0 0 0 0 0 0 0 0 0.06 0"/>
<feBlend mode="normal" in2="effect1_dropShadow_23_762" result="effect2_dropShadow_23_762"/>
<feBlend mode="normal" in="SourceGraphic" in2="effect2_dropShadow_23_762" result="shape"/>
</filter>
</defs>
</svg>
