<svg width="360" height="56" viewBox="0 0 360 56" fill="none" xmlns="http://www.w3.org/2000/svg">
<g clip-path="url(#clip0_23_629)">
<path d="M269.062 30.7598C268.962 31.8216 268.57 32.651 267.886 33.248C267.203 33.8405 266.294 34.1367 265.159 34.1367C264.366 34.1367 263.666 33.9499 263.06 33.5762C262.459 33.1979 261.994 32.6624 261.666 31.9697C261.338 31.277 261.167 30.4727 261.153 29.5566V28.627C261.153 27.6882 261.319 26.861 261.652 26.1455C261.985 25.43 262.461 24.8786 263.081 24.4912C263.705 24.1038 264.425 23.9102 265.241 23.9102C266.339 23.9102 267.223 24.2087 267.893 24.8057C268.563 25.4027 268.953 26.2458 269.062 27.335H267.34C267.258 26.6195 267.048 26.1045 266.711 25.79C266.378 25.471 265.888 25.3115 265.241 25.3115C264.489 25.3115 263.91 25.5872 263.505 26.1387C263.104 26.6855 262.898 27.4899 262.889 28.5518V29.4336C262.889 30.5091 263.081 31.3294 263.464 31.8945C263.851 32.4596 264.416 32.7422 265.159 32.7422C265.838 32.7422 266.348 32.5895 266.69 32.2842C267.032 31.9788 267.248 31.4707 267.34 30.7598H269.062ZM278.717 29.2832C278.717 30.2585 278.549 31.1152 278.211 31.8535C277.874 32.5872 277.391 33.1523 276.762 33.5488C276.138 33.9408 275.418 34.1367 274.602 34.1367C273.795 34.1367 273.075 33.9408 272.442 33.5488C271.813 33.1523 271.325 32.5895 270.979 31.8604C270.637 31.1312 270.464 30.2904 270.46 29.3379V28.7773C270.46 27.8066 270.63 26.9499 270.972 26.207C271.319 25.4642 271.804 24.8968 272.428 24.5049C273.057 24.1084 273.777 23.9102 274.588 23.9102C275.4 23.9102 276.117 24.1061 276.742 24.498C277.371 24.8854 277.856 25.446 278.198 26.1797C278.54 26.9089 278.713 27.7588 278.717 28.7295V29.2832ZM276.988 28.7637C276.988 27.6608 276.778 26.8154 276.359 26.2275C275.944 25.6396 275.354 25.3457 274.588 25.3457C273.841 25.3457 273.255 25.6396 272.832 26.2275C272.412 26.8109 272.198 27.638 272.189 28.709V29.2832C272.189 30.377 272.401 31.2223 272.825 31.8193C273.253 32.4163 273.846 32.7148 274.602 32.7148C275.368 32.7148 275.956 32.4232 276.366 31.8398C276.78 31.2565 276.988 30.4043 276.988 29.2832V28.7637ZM283.874 27.6426L285.966 24.0469H287.962L284.954 28.9824L288.031 34H286.014L283.874 30.3496L281.728 34H279.718L282.801 28.9824L279.787 24.0469H281.783L283.874 27.6426ZM291.198 30.3018V34H289.469V24.0469H293.277C294.389 24.0469 295.27 24.3363 295.922 24.915C296.578 25.4938 296.906 26.2594 296.906 27.2119C296.906 28.1872 296.585 28.946 295.943 29.4883C295.305 30.0306 294.409 30.3018 293.256 30.3018H291.198ZM291.198 28.9141H293.277C293.892 28.9141 294.361 28.7705 294.685 28.4834C295.008 28.1917 295.17 27.7725 295.17 27.2256C295.17 26.6878 295.006 26.2594 294.678 25.9404C294.35 25.6169 293.899 25.4505 293.324 25.4414H291.198V28.9141ZM302.939 31.6826H299.083L298.276 34H296.479L300.238 24.0469H301.79L305.557 34H303.752L302.939 31.6826ZM299.568 30.2881H302.453L301.011 26.1592L299.568 30.2881ZM314.754 34H313.031V29.5771H308.581V34H306.851V24.0469H308.581V28.1895H313.031V24.0469H314.754V34ZM323.062 24.0469H324.792V34H323.062V26.9111L318.694 34H316.965V24.0469H318.694V31.1426L323.062 24.0469ZM334.009 25.4414H330.906V34H329.19V25.4414H326.114V24.0469H334.009V25.4414ZM337.293 27.8545H339.331C340.06 27.8545 340.695 27.9798 341.238 28.2305C341.78 28.4811 342.192 28.8366 342.475 29.2969C342.758 29.7572 342.899 30.2904 342.899 30.8965C342.899 31.8262 342.582 32.5736 341.949 33.1387C341.32 33.7038 340.461 33.9909 339.372 34H335.564V24.0469H337.293V27.8545ZM337.293 29.2422V32.6191H339.324C339.907 32.6191 340.36 32.4619 340.684 32.1475C341.012 31.8285 341.176 31.4069 341.176 30.8828C341.176 30.3815 341.017 29.985 340.698 29.6934C340.379 29.4017 339.937 29.2513 339.372 29.2422H337.293Z" fill="#007AFF"/>
<path d="M34.9844 22.4219L29.4062 28L34.9844 33.5781L33.5781 34.9844L28 29.4062L22.4219 34.9844L21.0156 33.5781L26.5938 28L21.0156 22.4219L22.4219 21.0156L28 26.5938L33.5781 21.0156L34.9844 22.4219Z" fill="black"/>
</g>
<defs>
<clipPath id="clip0_23_629">
<rect width="360" height="56" fill="white"/>
</clipPath>
</defs>
</svg>
